<svg width="1134" height="204" viewBox="0 0 1134 204" fill="none" xmlns="http://www.w3.org/2000/svg">
<rect width="1134" height="204" fill="white" fill-opacity="0.1"/>
<path d="M549.641 100.031L559.375 103.438V107.953L545.719 102.281V99.0156L549.641 100.031ZM559.375 97.2656L549.641 100.734L545.719 101.719V98.4375L559.375 92.7656V97.2656ZM572.516 87.25L564.469 111.953H560.922L568.969 87.25H572.516ZM584.36 100.656L574.61 97.2656V92.7656L588.297 98.4375V101.734L584.36 100.656ZM574.61 103.484L584.375 100L588.297 99.0156V102.297L574.61 107.969V103.484Z" fill="white"/>
<path d="M641.697 101.618C641.697 142.773 608.271 176.136 567.038 176.136C525.805 176.136 492.379 142.773 492.379 101.618C492.379 60.4624 525.805 27.0995 567.038 27.0995C608.271 27.0995 641.697 60.4624 641.697 101.618ZM505.288 101.618C505.288 135.657 532.934 163.252 567.038 163.252C601.142 163.252 628.788 135.657 628.788 101.618C628.788 67.5781 601.142 39.9837 567.038 39.9837C532.934 39.9837 505.288 67.5781 505.288 101.618Z" fill="#FAB100" fill-opacity="0.2"/>
<path d="M506.099 71.0652C502.911 69.4665 501.601 65.5656 503.474 62.5302C510.182 51.6636 519.595 42.6656 530.843 36.4428C543.982 29.173 559.013 26.029 573.972 27.4215C588.93 28.8141 603.119 34.6785 614.685 44.2482C626.251 53.8179 634.656 66.6478 638.8 81.0609C642.944 95.4739 642.636 110.8 637.915 125.035C633.194 139.27 624.28 151.753 612.338 160.851C600.396 169.949 585.982 175.24 570.98 176.032C558.134 176.71 545.369 174.062 533.906 168.396C530.711 166.817 529.754 162.819 531.608 159.775V159.775C533.458 156.739 537.405 155.808 540.62 157.326C549.845 161.684 560.041 163.707 570.299 163.166C582.707 162.511 594.629 158.135 604.506 150.61C614.383 143.084 621.755 132.76 625.66 120.986C629.565 109.212 629.82 96.5362 626.392 84.6151C622.965 72.6941 616.013 62.0825 606.447 54.1674C596.881 46.2523 585.145 41.4018 572.773 40.25C560.401 39.0983 547.968 41.6987 537.101 47.7115C528.12 52.68 520.554 59.7875 515.049 68.3596C513.126 71.3547 509.281 72.6605 506.099 71.0652V71.0652Z" fill="#FAB100"/>
<path d="M580.793 152.02C581.518 154.674 579.953 157.438 577.257 157.906C567.733 159.56 557.89 158.726 548.676 155.443C537.889 151.599 528.466 144.577 521.641 135.295C514.816 126.013 510.906 114.902 510.421 103.415C509.936 91.9278 512.9 80.5988 518.925 70.9086C524.949 61.2185 533.755 53.6179 544.19 49.1005C554.625 44.5831 566.204 43.3589 577.415 45.588C588.625 47.817 598.945 53.3956 607.025 61.5947C613.939 68.6105 618.938 77.2659 621.574 86.7058C622.31 89.3409 620.519 91.9398 617.841 92.4243V92.4243C615.204 92.9016 612.702 91.1421 611.936 88.5578C609.706 81.0325 605.652 74.1371 600.111 68.5146C593.428 61.7332 584.893 57.1192 575.621 55.2755C566.349 53.4318 556.771 54.4444 548.14 58.1807C539.509 61.9171 532.226 68.2035 527.243 76.2182C522.26 84.2329 519.809 93.6032 520.21 103.104C520.611 112.605 523.845 121.795 529.49 129.472C535.135 137.15 542.928 142.957 551.851 146.137C559.228 148.765 567.093 149.495 574.735 148.298C577.402 147.881 580.079 149.401 580.793 152.02V152.02Z" fill="white"/>
<path d="M529.051 58.8158C552.275 37.9307 588.109 40.163 609.089 63.8018C630.069 87.4406 628.249 123.534 605.025 144.419C581.801 165.305 545.967 163.072 524.987 139.433C504.007 115.795 505.827 79.7009 529.051 58.8158ZM598.457 137.019C617.666 119.745 619.171 89.8918 601.818 70.3402C584.466 50.7885 554.828 48.9422 535.619 66.2162C516.41 83.4903 514.905 113.343 532.258 132.895C549.61 152.447 579.249 154.293 598.457 137.019Z" fill="white" fill-opacity="0.2"/>
</svg>
